# xmcd CD database file
#
# Track frame offsets:
#	150
#	14822
#	27977
#	42929
#	53163
#	67478
#	81926
#	95330
#	110646
#	127350
#	140902
#	155436
#
# Disc length: 2306 seconds
#
# Revision: 5
# Processed by: cddbd v1.5.2PL0 Copyright (c) Steve Scherf et al.
# Submitted via: CDex 1.79
#
DISCID=ba09000c
DTITLE=Cyndi Lauper - Detour
DYEAR=2016
DGENRE=Pop
TTITLE0=Funnel of Love
TTITLE1=Detour - feat. Emmylou Harris
TTITLE2=Misty Blue
TTITLE3=Walkin' After Midnight
TTITLE4=Heartaches by the Number
TTITLE5=The End of the World
TTITLE6=Night Life - feat. Willie Nelson
TTITLE7=Begging to You
TTITLE8=You're the Reason Our Kids Are Ugly - feat. Vince Gill
TTITLE9=I Fall to Pieces
TTITLE10=I Want to Be a Cowboy's Sweetheart - feat. Jewel
TTITLE11=Hard Candy Christmas - feat. Alison Krauss
EXTD=YEAR: 2016
EXTT0=
EXTT1=
EXTT2=
EXTT3=
EXTT4=
EXTT5=
EXTT6=
EXTT7=
EXTT8=
EXTT9=
EXTT10=
EXTT11=
PLAYORDER=
